# xmcd
# 
# Track frame offsets:
#     150
#     32258
#     57301
#     87448
#     111218
#     133886
#     157168
#     178947
#     206030
#     230999
#     257753
#     285726
#     314586
# 
# Disc length: 4538
# 
# Revision: 1
# Processed by: cddbd v1.5.2PL0 Copyright (c) Steve Scherf et al.
# Submitted via: fre:ac v1.0.17
# 
DISCID=ca11b80d
DTITLE=Andreas Franz - Syndikat der Spinne
DYEAR=2002
DGENRE=Hörbuch
TTITLE0=151
TTITLE1=152
TTITLE2=153
TTITLE3=154
TTITLE4=155
TTITLE5=156
TTITLE6=157
TTITLE7=158
TTITLE8=159
TTITLE9=160
TTITLE10=161
TTITLE11=162
TTITLE12=163
EXTD=
EXTT0=
EXTT1=
EXTT2=
EXTT3=
EXTT4=
EXTT5=
EXTT6=
EXTT7=
EXTT8=
EXTT9=
EXTT10=
EXTT11=
EXTT12=
PLAYORDER=
